<?xml version="1.0" encoding="UTF-8" standalone="no"?>
<!DOCTYPE svg PUBLIC "-//W3C//DTD SVG 1.1//EN"
 "http://www.w3.org/Graphics/SVG/1.1/DTD/svg11.dtd">
<!-- Generated by graphviz version 2.43.0 (0)
 -->
<!-- Title: G Pages: 1 -->
<svg width="1826pt" height="452pt"
 viewBox="0.00 0.00 1826.00 452.00" xmlns="http://www.w3.org/2000/svg" xmlns:xlink="http://www.w3.org/1999/xlink">
<g id="graph0" class="graph" transform="scale(1 1) rotate(0) translate(4 448)">
<title>G</title>
<polygon fill="white" stroke="transparent" points="-4,4 -4,-448 1822,-448 1822,4 -4,4"/>
<g id="clust1" class="cluster">
<title>cluster_module.api_gateway</title>
<polygon fill="none" stroke="black" points="784.5,-8 784.5,-245 1791.5,-245 1791.5,-8 784.5,-8"/>
<text text-anchor="middle" x="1288" y="-229.8" font-family="sans-serif" font-size="14.00">module.api_gateway</text>
</g>
<g id="clust2" class="cluster">
<title>cluster_module.dynamodb</title>
<polygon fill="none" stroke="black" points="1526,-307 1526,-382 1810,-382 1810,-307 1526,-307"/>
<text text-anchor="middle" x="1668" y="-366.8" font-family="sans-serif" font-size="14.00">module.dynamodb</text>
</g>
<g id="clust3" class="cluster">
<title>cluster_module.lambda</title>
<polygon fill="none" stroke="black" points="8,-253 8,-436 1441,-436 1441,-253 8,-253"/>
<text text-anchor="middle" x="724.5" y="-420.8" font-family="sans-serif" font-size="14.00">module.lambda</text>
</g>
<!-- module.api_gateway.aws_apigatewayv2_api.my_api -->
<g id="node1" class="node">
<title>module.api_gateway.aws_apigatewayv2_api.my_api</title>
<polygon fill="none" stroke="black" points="1004.5,-133 792.5,-133 792.5,-97 1004.5,-97 1004.5,-133"/>
<text text-anchor="middle" x="898.5" y="-111.3" font-family="sans-serif" font-size="14.00">aws_apigatewayv2_api.my_api</text>
</g>
<!-- module.api_gateway.aws_apigatewayv2_authorizer.lambda_authorizer -->
<g id="node2" class="node">
<title>module.api_gateway.aws_apigatewayv2_authorizer.lambda_authorizer</title>
<polygon fill="none" stroke="black" points="1493,-106 1155,-106 1155,-70 1493,-70 1493,-106"/>
<text text-anchor="middle" x="1324" y="-84.3" font-family="sans-serif" font-size="14.00">aws_apigatewayv2_authorizer.lambda_authorizer</text>
</g>
<!-- module.api_gateway.aws_apigatewayv2_authorizer.lambda_authorizer&#45;&gt;module.api_gateway.aws_apigatewayv2_api.my_api -->
<g id="edge1" class="edge">
<title>module.api_gateway.aws_apigatewayv2_authorizer.lambda_authorizer&#45;&gt;module.api_gateway.aws_apigatewayv2_api.my_api</title>
<path fill="none" stroke="black" d="M1154.71,-98.73C1107.81,-101.72 1057.94,-104.9 1014.84,-107.65"/>
<polygon fill="black" stroke="black" points="1014.36,-104.17 1004.61,-108.3 1014.81,-111.16 1014.36,-104.17"/>
</g>
<!-- module.lambda.aws_lambda_function.lambda -->
<g id="node15" class="node">
<title>module.lambda.aws_lambda_function.lambda</title>
<polygon fill="none" stroke="black" points="1003,-297 794,-297 794,-261 1003,-261 1003,-297"/>
<text text-anchor="middle" x="898.5" y="-275.3" font-family="sans-serif" font-size="14.00">aws_lambda_function.lambda</text>
</g>
<!-- module.api_gateway.aws_apigatewayv2_authorizer.lambda_authorizer&#45;&gt;module.lambda.aws_lambda_function.lambda -->
<g id="edge2" class="edge">
<title>module.api_gateway.aws_apigatewayv2_authorizer.lambda_authorizer&#45;&gt;module.lambda.aws_lambda_function.lambda</title>
<path fill="none" stroke="black" d="M1161.49,-106.13C1157.46,-108.8 1153.62,-111.75 1150,-115 1104.11,-156.2 1160.21,-208.17 1114,-249 1086.63,-273.18 1049.16,-283.33 1013.19,-286.62"/>
<polygon fill="black" stroke="black" points="1012.8,-283.14 1003.09,-287.37 1013.32,-290.12 1012.8,-283.14"/>
</g>
<!-- module.api_gateway.aws_apigatewayv2_integration.lambda_integration -->
<g id="node3" class="node">
<title>module.api_gateway.aws_apigatewayv2_integration.lambda_integration</title>
<polygon fill="none" stroke="black" points="1498,-214 1150,-214 1150,-178 1498,-178 1498,-214"/>
<text text-anchor="middle" x="1324" y="-192.3" font-family="sans-serif" font-size="14.00">aws_apigatewayv2_integration.lambda_integration</text>
</g>
<!-- module.api_gateway.aws_apigatewayv2_integration.lambda_integration&#45;&gt;module.api_gateway.aws_apigatewayv2_api.my_api -->
<g id="edge3" class="edge">
<title>module.api_gateway.aws_apigatewayv2_integration.lambda_integration&#45;&gt;module.api_gateway.aws_apigatewayv2_api.my_api</title>
<path fill="none" stroke="black" d="M1201.39,-177.92C1184.11,-175.09 1166.59,-172.08 1150,-169 1095.79,-158.94 1035.36,-145.96 987.43,-135.25"/>
<polygon fill="black" stroke="black" points="987.93,-131.77 977.4,-133 986.4,-138.6 987.93,-131.77"/>
</g>
<!-- module.api_gateway.aws_apigatewayv2_integration.lambda_integration&#45;&gt;module.lambda.aws_lambda_function.lambda -->
<g id="edge4" class="edge">
<title>module.api_gateway.aws_apigatewayv2_integration.lambda_integration&#45;&gt;module.lambda.aws_lambda_function.lambda</title>
<path fill="none" stroke="black" d="M1259.38,-214.06C1218.18,-225.28 1163.22,-239.35 1114,-249 1081.48,-255.38 1045.93,-260.92 1013.29,-265.45"/>
<polygon fill="black" stroke="black" points="1012.69,-261.99 1003.26,-266.82 1013.64,-268.93 1012.69,-261.99"/>
</g>
<!-- module.api_gateway.aws_apigatewayv2_route.route -->
<g id="node4" class="node">
<title>module.api_gateway.aws_apigatewayv2_route.route</title>
<polygon fill="none" stroke="black" points="1777.5,-214 1558.5,-214 1558.5,-178 1777.5,-178 1777.5,-214"/>
<text text-anchor="middle" x="1668" y="-192.3" font-family="sans-serif" font-size="14.00">aws_apigatewayv2_route.route</text>
</g>
<!-- module.api_gateway.aws_apigatewayv2_route.route&#45;&gt;module.api_gateway.aws_apigatewayv2_integration.lambda_integration -->
<g id="edge5" class="edge">
<title>module.api_gateway.aws_apigatewayv2_route.route&#45;&gt;module.api_gateway.aws_apigatewayv2_integration.lambda_integration</title>
<path fill="none" stroke="black" d="M1558.32,-196C1542.21,-196 1525.25,-196 1508.13,-196"/>
<polygon fill="black" stroke="black" points="1508.04,-192.5 1498.04,-196 1508.04,-199.5 1508.04,-192.5"/>
</g>
<!-- module.api_gateway.aws_apigatewayv2_stage.lambda -->
<g id="node5" class="node">
<title>module.api_gateway.aws_apigatewayv2_stage.lambda</title>
<polygon fill="none" stroke="black" points="1783.5,-52 1552.5,-52 1552.5,-16 1783.5,-16 1783.5,-52"/>
<text text-anchor="middle" x="1668" y="-30.3" font-family="sans-serif" font-size="14.00">aws_apigatewayv2_stage.lambda</text>
</g>
<!-- module.api_gateway.aws_cloudwatch_log_group.api_gw -->
<g id="node6" class="node">
<title>module.api_gateway.aws_cloudwatch_log_group.api_gw</title>
<polygon fill="none" stroke="black" points="1446,-52 1202,-52 1202,-16 1446,-16 1446,-52"/>
<text text-anchor="middle" x="1324" y="-30.3" font-family="sans-serif" font-size="14.00">aws_cloudwatch_log_group.api_gw</text>
</g>
<!-- module.api_gateway.aws_apigatewayv2_stage.lambda&#45;&gt;module.api_gateway.aws_cloudwatch_log_group.api_gw -->
<g id="edge6" class="edge">
<title>module.api_gateway.aws_apigatewayv2_stage.lambda&#45;&gt;module.api_gateway.aws_cloudwatch_log_group.api_gw</title>
<path fill="none" stroke="black" d="M1552.17,-34C1521.44,-34 1487.98,-34 1456.43,-34"/>
<polygon fill="black" stroke="black" points="1456.26,-30.5 1446.26,-34 1456.26,-37.5 1456.26,-30.5"/>
</g>
<!-- module.api_gateway.aws_cloudwatch_log_group.api_gw&#45;&gt;module.api_gateway.aws_apigatewayv2_api.my_api -->
<g id="edge7" class="edge">
<title>module.api_gateway.aws_cloudwatch_log_group.api_gw&#45;&gt;module.api_gateway.aws_apigatewayv2_api.my_api</title>
<path fill="none" stroke="black" d="M1201.86,-52C1184.43,-54.85 1166.74,-57.89 1150,-61 1095.79,-71.06 1035.36,-84.04 987.43,-94.75"/>
<polygon fill="black" stroke="black" points="986.4,-91.4 977.4,-97 987.93,-98.23 986.4,-91.4"/>
</g>
<!-- module.api_gateway.aws_lambda_permission.apigateway_permission -->
<g id="node7" class="node">
<title>module.api_gateway.aws_lambda_permission.apigateway_permission</title>
<polygon fill="none" stroke="black" points="1490.5,-160 1157.5,-160 1157.5,-124 1490.5,-124 1490.5,-160"/>
<text text-anchor="middle" x="1324" y="-138.3" font-family="sans-serif" font-size="14.00">aws_lambda_permission.apigateway_permission</text>
</g>
<!-- module.api_gateway.aws_lambda_permission.apigateway_permission&#45;&gt;module.api_gateway.aws_apigatewayv2_api.my_api -->
<g id="edge8" class="edge">
<title>module.api_gateway.aws_lambda_permission.apigateway_permission&#45;&gt;module.api_gateway.aws_apigatewayv2_api.my_api</title>
<path fill="none" stroke="black" d="M1157.44,-131.45C1109.77,-128.41 1058.82,-125.16 1014.89,-122.36"/>
<polygon fill="black" stroke="black" points="1014.96,-118.85 1004.76,-121.71 1014.52,-125.84 1014.96,-118.85"/>
</g>
<!-- module.api_gateway.aws_lambda_permission.apigateway_permission&#45;&gt;module.lambda.aws_lambda_function.lambda -->
<g id="edge9" class="edge">
<title>module.api_gateway.aws_lambda_permission.apigateway_permission&#45;&gt;module.lambda.aws_lambda_function.lambda</title>
<path fill="none" stroke="black" d="M1163.73,-160.02C1158.95,-162.7 1154.35,-165.68 1150,-169 1118.99,-192.64 1145.19,-225.61 1114,-249 1085.46,-270.41 1048.6,-280.06 1013.53,-283.74"/>
<polygon fill="black" stroke="black" points="1012.85,-280.29 1003.2,-284.66 1013.47,-287.26 1012.85,-280.29"/>
</g>
<!-- module.dynamodb.aws_dynamodb_table.dynamodb&#45;table -->
<g id="node8" class="node">
<title>module.dynamodb.aws_dynamodb_table.dynamodb&#45;table</title>
<polygon fill="none" stroke="black" points="1802,-351 1534,-351 1534,-315 1802,-315 1802,-351"/>
<text text-anchor="middle" x="1668" y="-329.3" font-family="sans-serif" font-size="14.00">aws_dynamodb_table.dynamodb&#45;table</text>
</g>
<!-- module.lambda.data.archive_file.lambda -->
<g id="node9" class="node">
<title>module.lambda.data.archive_file.lambda</title>
<polygon fill="none" stroke="black" points="617.5,-297 443.5,-297 443.5,-261 617.5,-261 617.5,-297"/>
<text text-anchor="middle" x="530.5" y="-275.3" font-family="sans-serif" font-size="14.00">data.archive_file.lambda</text>
</g>
<!-- module.lambda.null_resource.build&#45;go&#45;bin&#45;trigger -->
<g id="node16" class="node">
<title>module.lambda.null_resource.build&#45;go&#45;bin&#45;trigger</title>
<polygon fill="none" stroke="black" points="316.5,-297 77.5,-297 77.5,-261 316.5,-261 316.5,-297"/>
<text text-anchor="middle" x="197" y="-275.3" font-family="sans-serif" font-size="14.00">null_resource.build&#45;go&#45;bin&#45;trigger</text>
</g>
<!-- module.lambda.data.archive_file.lambda&#45;&gt;module.lambda.null_resource.build&#45;go&#45;bin&#45;trigger -->
<g id="edge10" class="edge">
<title>module.lambda.data.archive_file.lambda&#45;&gt;module.lambda.null_resource.build&#45;go&#45;bin&#45;trigger</title>
<path fill="none" stroke="black" d="M443.27,-279C407.78,-279 365.93,-279 326.93,-279"/>
<polygon fill="black" stroke="black" points="326.55,-275.5 316.55,-279 326.55,-282.5 326.55,-275.5"/>
</g>
<!-- module.lambda.data.aws_iam_policy_document.assume_role_lambda -->
<g id="node10" class="node">
<title>module.lambda.data.aws_iam_policy_document.assume_role_lambda</title>
<polygon fill="none" stroke="black" points="378,-351 16,-351 16,-315 378,-315 378,-351"/>
<text text-anchor="middle" x="197" y="-329.3" font-family="sans-serif" font-size="14.00">data.aws_iam_policy_document.assume_role_lambda</text>
</g>
<!-- module.lambda.aws_iam_policy.dynamodb_policy -->
<g id="node11" class="node">
<title>module.lambda.aws_iam_policy.dynamodb_policy</title>
<polygon fill="none" stroke="black" points="647,-405 414,-405 414,-369 647,-369 647,-405"/>
<text text-anchor="middle" x="530.5" y="-383.3" font-family="sans-serif" font-size="14.00">aws_iam_policy.dynamodb_policy</text>
</g>
<!-- module.lambda.aws_iam_role.iam_for_lambda -->
<g id="node12" class="node">
<title>module.lambda.aws_iam_role.iam_for_lambda</title>
<polygon fill="none" stroke="black" points="635.5,-351 425.5,-351 425.5,-315 635.5,-315 635.5,-351"/>
<text text-anchor="middle" x="530.5" y="-329.3" font-family="sans-serif" font-size="14.00">aws_iam_role.iam_for_lambda</text>
</g>
<!-- module.lambda.aws_iam_role.iam_for_lambda&#45;&gt;module.lambda.data.aws_iam_policy_document.assume_role_lambda -->
<g id="edge11" class="edge">
<title>module.lambda.aws_iam_role.iam_for_lambda&#45;&gt;module.lambda.data.aws_iam_policy_document.assume_role_lambda</title>
<path fill="none" stroke="black" d="M425.07,-333C413.16,-333 400.76,-333 388.18,-333"/>
<polygon fill="black" stroke="black" points="388.04,-329.5 378.04,-333 388.04,-336.5 388.04,-329.5"/>
</g>
<!-- module.lambda.aws_iam_role_policy_attachment.dynamodb_policy_attachment -->
<g id="node13" class="node">
<title>module.lambda.aws_iam_role_policy_attachment.dynamodb_policy_attachment</title>
<polygon fill="none" stroke="black" points="1114,-378 683,-378 683,-342 1114,-342 1114,-378"/>
<text text-anchor="middle" x="898.5" y="-356.3" font-family="sans-serif" font-size="14.00">aws_iam_role_policy_attachment.dynamodb_policy_attachment</text>
</g>
<!-- module.lambda.aws_iam_role_policy_attachment.dynamodb_policy_attachment&#45;&gt;module.lambda.aws_iam_policy.dynamodb_policy -->
<g id="edge12" class="edge">
<title>module.lambda.aws_iam_role_policy_attachment.dynamodb_policy_attachment&#45;&gt;module.lambda.aws_iam_policy.dynamodb_policy</title>
<path fill="none" stroke="black" d="M682.74,-375.84C674.1,-376.48 665.56,-377.11 657.2,-377.73"/>
<polygon fill="black" stroke="black" points="656.8,-374.25 647.09,-378.47 657.32,-381.23 656.8,-374.25"/>
</g>
<!-- module.lambda.aws_iam_role_policy_attachment.dynamodb_policy_attachment&#45;&gt;module.lambda.aws_iam_role.iam_for_lambda -->
<g id="edge13" class="edge">
<title>module.lambda.aws_iam_role_policy_attachment.dynamodb_policy_attachment&#45;&gt;module.lambda.aws_iam_role.iam_for_lambda</title>
<path fill="none" stroke="black" d="M682.74,-344.16C670.21,-343.23 657.88,-342.32 646,-341.45"/>
<polygon fill="black" stroke="black" points="645.92,-337.93 635.69,-340.69 645.4,-344.91 645.92,-337.93"/>
</g>
<!-- module.lambda.aws_lambda_alias.lambda_alias -->
<g id="node14" class="node">
<title>module.lambda.aws_lambda_alias.lambda_alias</title>
<polygon fill="none" stroke="black" points="1433,-297 1215,-297 1215,-261 1433,-261 1433,-297"/>
<text text-anchor="middle" x="1324" y="-275.3" font-family="sans-serif" font-size="14.00">aws_lambda_alias.lambda_alias</text>
</g>
<!-- module.lambda.aws_lambda_alias.lambda_alias&#45;&gt;module.lambda.aws_lambda_function.lambda -->
<g id="edge14" class="edge">
<title>module.lambda.aws_lambda_alias.lambda_alias&#45;&gt;module.lambda.aws_lambda_function.lambda</title>
<path fill="none" stroke="black" d="M1214.76,-279C1153.13,-279 1075.98,-279 1013.42,-279"/>
<polygon fill="black" stroke="black" points="1013.12,-275.5 1003.12,-279 1013.12,-282.5 1013.12,-275.5"/>
</g>
<!-- module.lambda.aws_lambda_function.lambda&#45;&gt;module.lambda.data.archive_file.lambda -->
<g id="edge15" class="edge">
<title>module.lambda.aws_lambda_function.lambda&#45;&gt;module.lambda.data.archive_file.lambda</title>
<path fill="none" stroke="black" d="M793.6,-279C741.49,-279 678.79,-279 627.78,-279"/>
<polygon fill="black" stroke="black" points="627.74,-275.5 617.74,-279 627.74,-282.5 627.74,-275.5"/>
</g>
<!-- module.lambda.aws_lambda_function.lambda&#45;&gt;module.lambda.aws_iam_role.iam_for_lambda -->
<g id="edge16" class="edge">
<title>module.lambda.aws_lambda_function.lambda&#45;&gt;module.lambda.aws_iam_role.iam_for_lambda</title>
<path fill="none" stroke="black" d="M793.6,-294.33C747.43,-301.14 692.94,-309.18 645.64,-316.16"/>
<polygon fill="black" stroke="black" points="645.04,-312.71 635.66,-317.63 646.07,-319.63 645.04,-312.71"/>
</g>
</g>
</svg>
